<?xml version="1.0" standalone="no"?>
<!DOCTYPE svg PUBLIC "-//W3C//DTD SVG 20010904//EN"
 "http://www.w3.org/TR/2001/REC-SVG-20010904/DTD/svg10.dtd">
<svg version="1.0" xmlns="http://www.w3.org/2000/svg"
 width="2000.000000pt" height="2000.000000pt" viewBox="0 0 2000.000000 2000.000000"
 preserveAspectRatio="xMidYMid meet">
<metadata>
Created by potrace 1.14, written by Peter Selinger 2001-2017
</metadata>
<g transform="translate(0.000000,2000.000000) scale(0.100000,-0.100000)"
fill="#000000" stroke="none">
<path d="M0 10000 l0 -10000 10000 0 10000 0 0 10000 0 10000 -10000 0 -10000
0 0 -10000z m7579 -746 c0 -2167 0 -3944 0 -3951 1 -9 131 -12 557 -11 306 0
559 -3 563 -8 4 -5 16 -45 26 -89 10 -44 22 -93 26 -109 5 -16 9 -43 9 -60 -1
-30 -1 -30 -13 -9 -7 12 -27 34 -46 47 -18 13 -48 50 -68 80 -19 31 -39 56
-44 56 -11 0 -18 -32 -21 -100 -3 -52 -5 -55 -30 -58 -28 -3 -28 -4 -28 -77 0
-57 -3 -74 -16 -79 -21 -8 -217 -8 -332 0 l-90 7 -7 34 c-11 60 -54 53 -55 -9
0 -24 -5 -27 -42 -33 -24 -3 -225 -5 -448 -3 l-405 3 0 1835 0 1836 42 65 c34
51 44 78 49 125 8 77 -12 130 -56 145 -27 10 -30 15 -30 55 l0 45 45 -33 c24
-18 51 -48 60 -66 9 -19 31 -40 51 -49 32 -16 36 -16 51 0 22 22 31 173 13
217 l-13 31 -22 -21 c-21 -20 -22 -20 -38 -2 -11 12 -17 36 -17 69 0 49 -1 52
-31 58 -17 4 -46 20 -65 37 l-34 30 0 424 0 424 27 -17 c29 -20 198 -113 253
-140 19 -9 44 -24 55 -33 11 -9 32 -21 48 -28 22 -10 27 -9 27 3 0 8 -28 32
-62 55 -35 22 -110 71 -168 111 -58 39 -121 80 -140 93 -22 14 -37 32 -41 51
-4 17 -7 653 -8 1413 l-1 1384 -493 494 c-271 272 -498 494 -505 494 -9 0 -12
-352 -12 -1559 0 -858 -3 -1566 -6 -1575 -5 -13 -11 -12 -38 9 -17 13 -42 28
-56 34 -14 6 -53 28 -86 50 -34 21 -90 48 -125 59 -35 12 -82 28 -104 36 l-40
14 -5 2026 c-3 1114 -4 2029 -3 2034 2 4 439 -428 973 -959 l970 -967 -1
-3938z m-1792 1695 c32 -12 92 -37 133 -56 41 -19 96 -45 122 -57 l46 -21 7
-62 c4 -35 4 -78 1 -97 l-7 -35 -87 31 c-91 32 -207 46 -199 25 2 -7 18 -11
36 -9 25 2 31 -2 31 -17 0 -11 -4 -23 -10 -26 -12 -7 -13 -55 -2 -71 10 -15
172 -74 204 -74 25 0 27 -4 33 -62 8 -82 2 -514 -8 -524 -4 -4 -22 -3 -40 3
-30 9 -37 7 -65 -18 -18 -16 -39 -29 -47 -29 -8 0 -34 -8 -58 -18 -66 -30
-152 -62 -161 -62 -5 0 -17 -7 -27 -16 -10 -9 -25 -14 -34 -11 -13 6 -15 37
-15 224 0 120 3 228 6 241 6 21 8 21 24 7 9 -8 43 -29 76 -46 l59 -30 22 28
c13 15 23 38 23 51 0 29 -40 69 -77 78 -118 26 -118 26 -121 75 -2 35 2 49 18
64 27 24 25 43 -5 71 -23 21 -25 30 -25 106 0 96 8 115 38 99 35 -19 72 -14
72 9 0 13 -7 20 -19 20 -30 0 -51 11 -51 26 0 7 -8 17 -17 23 -27 15 -33 179
-8 197 14 11 23 11 46 -1 15 -8 54 -24 86 -36z m250 -1159 c45 -27 53 -48 56
-146 2 -76 0 -88 -17 -98 -11 -6 -40 -30 -65 -53 -25 -24 -49 -43 -54 -43 -8
0 -157 -120 -157 -126 0 -14 53 0 81 21 19 14 55 41 80 59 33 24 60 35 90 37
l44 4 3 -275 c1 -151 0 -290 -3 -308 -5 -24 -15 -37 -43 -51 -20 -10 -58 -37
-83 -59 -35 -31 -63 -45 -114 -58 -98 -25 -119 -46 -125 -130 -3 -37 -10 -69
-15 -71 -6 -2 -24 36 -40 84 -29 87 -30 91 -33 340 l-4 253 44 39 c24 21 54
48 68 60 23 18 23 20 5 21 -10 0 -36 -17 -57 -37 -31 -31 -41 -35 -48 -23 -9
15 -13 422 -4 453 5 15 12 18 39 13 29 -6 37 -3 51 19 9 14 25 25 36 25 11 0
33 9 49 21 16 11 44 22 62 25 17 2 50 8 72 13 22 5 42 9 45 10 3 0 19 -8 37
-19z m-202 -1449 c-7 -20 -26 -63 -43 -96 -31 -62 -62 -155 -62 -187 0 -38 18
-15 57 70 44 95 62 117 93 109 15 -4 22 4 36 39 9 24 19 44 21 44 2 0 20 -12
38 -26 32 -24 36 -25 57 -10 12 9 30 16 40 16 17 0 18 -17 18 -254 0 -197 -3
-263 -15 -295 -8 -23 -14 -42 -13 -44 5 -10 -16 -47 -27 -47 -16 0 -55 -64
-55 -90 0 -10 14 -32 30 -48 35 -36 37 -57 10 -109 -32 -62 -44 -124 -31 -157
9 -23 14 -26 26 -16 18 15 43 91 51 160 4 30 10 61 14 69 7 13 24 -560 18
-604 -3 -19 4 -20 172 -23 160 -2 179 -4 225 -26 108 -51 157 -118 157 -216 0
-89 -44 -157 -135 -209 l-52 -29 -230 -1 c-249 -1 -378 6 -369 20 3 5 20 9 38
9 39 0 64 23 47 43 -8 10 -8 23 1 48 6 19 12 39 14 46 5 20 82 54 106 48 19
-5 23 -13 23 -48 0 -23 -4 -48 -9 -55 -9 -15 19 -52 40 -52 18 0 29 24 44 100
7 36 20 75 28 87 10 16 12 36 7 73 -8 57 -29 87 -65 92 -23 3 -25 0 -23 -37 1
-22 5 -59 8 -81 7 -42 -9 -71 -21 -40 -8 20 -33 20 -60 1 -30 -20 -35 -10 -18
38 31 89 13 168 -41 177 -28 5 -30 8 -29 50 1 25 5 71 9 103 9 68 -8 79 -31
20 -8 -21 -25 -60 -39 -88 -42 -88 -81 -227 -90 -330 -7 -75 -17 -104 -36
-110 -21 -7 -25 -20 -9 -30 6 -3 10 -21 10 -40 0 -27 -5 -34 -26 -39 -36 -10
-94 3 -94 21 0 10 6 12 21 8 20 -7 22 -5 16 28 -4 29 -2 38 16 50 l22 15 -22
30 c-27 37 -32 112 -8 112 8 0 15 -7 15 -15 0 -13 4 -12 22 5 24 23 17 36 -22
42 -25 3 -25 4 -31 123 -3 66 -12 145 -20 175 -11 43 -14 132 -13 395 0 187 1
369 2 405 1 36 0 137 -1 225 -2 129 1 169 15 205 9 25 19 58 23 74 5 22 9 26
18 17 6 -6 19 -11 29 -11 18 0 73 66 90 110 15 41 28 3 13 -39z m3572 -1529
c9 -5 3 -34 -22 -107 -50 -150 -93 -266 -114 -305 -18 -35 -18 -35 -102 -42
-46 -4 -259 -6 -474 -6 -445 0 -451 1 -524 84 -80 91 -81 213 -3 304 70 82 36
78 667 79 308 1 565 -3 572 -7z m3557 -513 c623 -626 1380 -1396 1384 -1407 3
-11 -3359 -15 -3376 -4 -9 7 -7 14 9 33 12 13 34 42 48 64 46 70 172 239 204
273 l31 32 1000 0 c912 0 1001 1 1018 16 17 16 14 21 -55 97 -126 141 -888
905 -928 932 l-39 25 -602 0 c-332 0 -609 4 -615 8 -26 17 65 240 166 407 l18
30 564 6 c310 3 586 4 613 3 l49 -1 511 -514z m-2234 398 c0 -6 -12 -24 -27
-39 -28 -30 -63 -37 -63 -14 0 25 12 46 26 46 8 0 14 6 14 14 0 8 6 16 13 19
14 5 37 -11 37 -26z m38 -143 c4 -5 14 -9 22 -9 8 0 18 -4 22 -10 13 -18 9
-80 -7 -101 -8 -10 -15 -29 -15 -40 0 -20 -7 -22 -100 -28 -143 -11 -400 3
-400 20 0 8 7 14 16 14 9 0 23 8 32 19 20 22 73 41 117 41 19 0 39 8 49 19 10
10 37 24 60 30 27 6 50 20 59 35 15 22 22 24 78 22 33 -2 64 -7 67 -12z"/>
<path d="M8462 5137 c2 -15 8 -26 13 -25 12 3 8 29 -7 43 -6 7 -8 1 -6 -18z"/>
<path d="M5747 6803 c-10 -9 -9 -53 2 -53 12 0 22 43 13 52 -5 5 -11 5 -15 1z"/>
<path d="M13510 5007 c0 -20 66 -87 85 -87 8 0 15 1 15 3 0 1 -23 24 -50 50
-29 28 -50 42 -50 34z"/>
<path d="M10770 6495 c0 -9 5 -15 11 -13 6 2 11 8 11 13 0 5 -5 11 -11 13 -6
2 -11 -4 -11 -13z"/>
</g>
</svg>
